<?xml version="1.0" standalone="no"?>
<!DOCTYPE svg PUBLIC "-//W3C//DTD SVG 20010904//EN"
 "http://www.w3.org/TR/2001/REC-SVG-20010904/DTD/svg10.dtd">
<svg version="1.0" xmlns="http://www.w3.org/2000/svg"
 width="1053.000000pt" height="1280.000000pt" viewBox="0 0 1053.000000 1280.000000"
 preserveAspectRatio="xMidYMid meet">
<metadata>
Created by potrace 1.15, written by Peter Selinger 2001-2017
</metadata>
<g transform="translate(0.000000,1280.000000) scale(0.100000,-0.100000)"
fill="#000000" stroke="none">
<path d="M4182 12208 c-5 -7 -24 -85 -42 -173 -55 -277 -61 -297 -76 -284 -19
16 -114 -6 -192 -43 -266 -130 -448 -552 -351 -814 22 -59 106 -182 144 -212
l27 -21 -55 -128 c-108 -255 -179 -528 -194 -745 -5 -79 -10 -101 -22 -105
-159 -51 -313 -207 -505 -513 -83 -131 -234 -429 -316 -620 -289 -673 -546
-1594 -695 -2490 -14 -85 -30 -164 -34 -176 -15 -35 -226 -248 -324 -327 -126
-102 -240 -177 -452 -297 -296 -168 -361 -208 -437 -269 -264 -214 -287 -495
-79 -970 50 -115 62 -174 101 -496 47 -378 97 -601 184 -803 102 -239 264
-439 455 -562 42 -27 84 -55 93 -62 14 -11 28 -113 83 -643 l67 -630 41 -39
c63 -58 138 -90 198 -83 53 6 85 21 171 76 45 28 59 43 63 66 2 17 25 262 51
545 25 283 47 516 49 518 9 10 1064 -151 1731 -263 243 -41 538 -88 655 -105
118 -17 215 -33 217 -34 1 -2 31 -273 67 -602 l64 -599 38 -33 c88 -77 187
-100 268 -63 46 20 151 87 159 99 3 5 28 265 56 578 28 313 54 575 58 583 4 7
52 31 107 53 216 86 1326 549 1416 592 53 25 107 48 121 51 l24 6 47 -443 48
-443 37 -38 c48 -49 125 -87 178 -87 68 0 122 25 251 115 2 1 14 100 28 221
13 120 33 298 45 394 22 199 45 425 56 550 l6 85 65 68 c145 155 258 339 352
574 43 109 101 284 126 383 35 139 788 1586 1238 2380 83 146 185 337 228 425
76 159 226 523 280 683 190 561 64 1227 -352 1852 -134 201 -248 340 -419 510
-210 211 -385 345 -591 454 -224 118 -442 161 -570 111 -13 -5 -20 11 -38 87
-30 122 -81 259 -143 383 l-51 100 23 85 c31 117 38 271 16 381 -32 159 -107
279 -175 279 -24 0 -29 6 -40 43 -37 124 -175 368 -261 461 -34 37 -42 54 -51
108 -15 96 -50 251 -60 271 -6 9 -15 17 -23 17 -7 0 -80 -47 -163 -105 l-151
-105 -74 31 c-357 148 -737 218 -1108 206 -346 -12 -592 -66 -1085 -238 l-150
-52 -216 151 c-119 84 -219 152 -221 152 -3 0 -10 -6 -16 -12z m1938 -58 c244
-18 492 -71 729 -157 69 -25 132 -48 139 -52 8 -4 -20 -29 -78 -69 l-90 -62
-57 28 c-62 31 -171 62 -293 84 -52 9 -168 13 -375 13 -253 -1 -326 -4 -465
-23 -212 -29 -423 -71 -580 -118 -69 -20 -135 -39 -148 -41 -17 -4 -46 11
-108 53 -47 32 -88 62 -91 66 -5 10 12 17 242 95 467 158 801 210 1175 183z
m-1580 -230 c168 -117 310 -218 315 -225 6 -6 17 -14 25 -17 8 -3 53 -33 100
-67 55 -39 91 -59 105 -56 11 2 45 6 75 10 30 3 154 24 275 46 423 78 696 63
974 -55 81 -34 86 -35 110 -19 14 9 142 96 283 195 141 98 261 178 266 178 6
0 12 4 14 10 2 5 61 50 133 99 86 60 132 86 136 78 19 -36 52 -253 60 -402 5
-93 11 -183 12 -200 2 -28 0 -30 -49 -36 -177 -22 -344 -150 -433 -332 -53
-110 -71 -180 -78 -313 -7 -134 10 -225 63 -334 49 -103 169 -222 279 -277 44
-21 90 -42 102 -45 22 -6 22 -9 16 -103 -5 -81 -4 -100 9 -109 13 -10 10 -26
-19 -131 -42 -151 -96 -394 -122 -550 -95 -559 -95 -1026 -1 -1740 77 -584 83
-846 25 -1132 -37 -182 -42 -191 -139 -226 -123 -44 -348 -71 -423 -51 -23 6
-23 9 -23 153 0 182 -22 378 -66 581 -5 23 0 28 51 49 93 39 168 103 261 225
47 61 104 128 127 148 35 31 39 39 28 52 -8 9 -17 16 -22 16 -18 0 -85 -69
-154 -160 -40 -52 -95 -117 -124 -143 -52 -49 -170 -113 -182 -99 -4 4 -21 59
-38 122 -196 741 -608 1371 -995 1521 -87 34 -192 53 -252 46 -24 -2 -44 0
-44 5 0 5 -43 7 -97 6 l-98 -3 -3 -102 -3 -101 -227 -4 -228 -3 -67 -33 c-49
-24 -79 -48 -107 -83 -67 -85 -70 -106 -70 -510 l0 -357 -38 -49 c-122 -153
-292 -294 -371 -308 -49 -8 -98 15 -107 50 -17 67 21 188 87 280 33 46 34 79
2 73 -27 -5 -100 -121 -123 -195 -21 -70 -26 -156 -10 -197 12 -33 78 -66 133
-66 77 0 156 49 281 174 134 133 196 201 196 214 0 16 114 119 158 141 54 28
87 27 117 -4 44 -43 29 -125 -34 -197 -61 -70 -32 -79 77 -25 68 33 92 40 144
41 58 1 63 -1 66 -21 2 -13 -10 -51 -27 -85 -63 -129 -63 -339 0 -406 17 -19
16 -21 -38 -67 -106 -92 -139 -180 -92 -247 12 -16 18 -32 15 -35 -16 -17
-173 78 -315 190 -91 73 -121 83 -121 42 0 -76 -342 -246 -583 -289 -176 -32
-330 -32 -362 0 -8 9 -16 10 -20 4 -10 -16 -105 26 -142 62 -116 112 -157 276
-118 466 49 236 562 1011 806 1218 l46 39 -77 155 c-185 371 -312 708 -360
958 -24 123 -26 348 -4 517 24 192 110 489 194 671 41 91 42 92 83 98 85 14
188 155 246 338 57 179 82 326 87 508 4 145 10 195 52 408 28 145 51 241 57
238 6 -2 148 -99 315 -216z m1910 -50 c107 -16 226 -48 277 -73 l43 -22 -139
-97 -138 -97 -88 34 c-268 106 -542 126 -880 66 -60 -11 -175 -31 -255 -45
-79 -14 -156 -26 -170 -26 -13 0 -56 21 -93 47 l-68 47 53 19 c205 70 543 131
898 161 85 7 485 -3 560 -14z m1087 -232 c181 -276 264 -564 204 -709 -22 -53
-22 -57 -7 -87 51 -98 -19 -238 -148 -298 -114 -53 -191 -19 -264 120 -23 44
-27 63 -27 141 0 79 3 95 27 135 28 49 65 80 121 103 57 24 72 57 72 157 0 47
-10 150 -22 230 -23 153 -34 300 -23 300 3 0 34 -42 67 -92z m430 -1278 c51
-110 109 -291 134 -421 37 -197 17 -404 -76 -786 -49 -200 -136 -470 -210
-658 -107 -274 -320 -667 -447 -827 l-29 -38 25 -33 c36 -47 158 -306 192
-407 27 -78 29 -97 29 -230 0 -167 -15 -231 -90 -379 -72 -144 -202 -327 -219
-310 -3 2 2 31 10 64 30 131 45 283 45 465 0 205 -6 289 -56 690 -55 438 -66
569 -72 835 -11 465 39 888 158 1355 66 260 59 244 110 250 l44 5 7 55 c3 30
6 78 7 105 l1 51 43 11 c95 26 220 136 300 267 29 46 31 48 45 30 8 -11 30
-53 49 -94z m-2555 -1829 c97 -25 156 -55 256 -131 304 -229 607 -769 770
-1372 l29 -108 -32 0 c-46 0 -121 24 -300 97 -182 75 -370 140 -427 150 -35 5
-42 11 -68 62 -15 31 -40 73 -53 93 l-26 37 8 428 9 428 -24 50 c-45 94 -85
122 -186 131 -35 3 -82 10 -105 16 l-43 11 0 57 c0 37 5 60 13 63 27 12 108 6
179 -12z m-129 -186 c45 -21 93 -69 120 -119 21 -40 22 -53 25 -408 l3 -368
-22 0 c-61 0 -128 -64 -150 -142 l-10 -38 -64 50 c-84 63 -158 85 -206 60 -15
-9 -24 -5 -48 22 -26 29 -34 32 -82 31 -30 -1 -72 -8 -95 -16 l-41 -14 5 67
c5 78 -12 121 -58 145 -66 34 -148 11 -242 -67 l-48 -40 0 314 c0 376 3 395
84 473 28 28 67 56 86 62 25 9 131 11 372 8 285 -3 342 -6 371 -20z m151 -15
c15 -5 40 -31 56 -57 l30 -47 0 -175 c0 -97 -3 -281 -7 -408 -5 -193 -8 -231
-20 -222 -10 9 -13 84 -13 378 0 219 -4 381 -10 403 -6 20 -26 60 -45 87 -35
53 -34 58 9 41z m-4 -945 c7 -8 21 -15 30 -15 24 0 94 -88 136 -172 27 -53 40
-69 62 -74 106 -24 207 -58 416 -141 138 -55 273 -102 320 -111 44 -9 84 -21
87 -25 8 -11 45 -232 59 -347 5 -46 10 -149 10 -227 0 -167 14 -155 -135 -119
-273 67 -550 195 -838 388 l-117 78 -98 -24 c-154 -39 -279 -58 -388 -59 -88
0 -108 3 -150 24 -61 30 -67 56 -25 119 29 44 136 132 198 164 33 16 43 32 35
54 -6 17 -29 15 -63 -5 -62 -37 -92 28 -87 182 9 212 102 307 230 232 39 -22
91 -74 169 -166 45 -53 82 -16 39 39 -43 54 -3 183 65 211 28 11 31 11 45 -6z
m-779 -890 c78 -41 130 -46 152 -15 13 18 19 19 67 10 106 -20 266 -5 473 46
l107 26 73 -49 c304 -209 645 -364 932 -422 l90 -18 -3 -39 c-5 -59 -38 -193
-61 -247 -11 -27 -57 -103 -100 -171 -97 -150 -194 -322 -223 -396 -11 -30
-23 -81 -26 -113 -4 -51 -2 -61 19 -83 65 -70 226 7 476 229 101 89 250 249
322 346 22 29 43 56 47 60 13 11 -122 -242 -186 -349 -220 -368 -441 -652
-729 -940 -311 -310 -647 -553 -969 -701 -89 -41 -90 -40 -26 36 64 76 160
231 194 312 49 117 63 186 58 288 -6 113 -32 180 -96 235 -51 45 -87 55 -179
47 -125 -10 -312 -123 -507 -306 -50 -47 -79 -70 -65 -51 145 196 159 225 159
321 0 108 -68 241 -150 291 -170 105 -521 16 -875 -220 -144 -96 -292 -214
-437 -348 -100 -92 -147 -142 -321 -337 -54 -61 -82 -84 -144 -114 -71 -35
-83 -38 -162 -38 -137 1 -232 38 -479 188 -127 77 -135 84 -215 185 -262 332
-364 549 -297 635 27 34 102 51 188 42 132 -13 345 -77 521 -156 80 -36 111
-36 186 0 155 73 473 363 823 749 l111 122 -5 173 c-3 94 -9 283 -12 418 l-7
246 111 -5 c176 -8 353 28 564 115 109 45 229 116 275 163 l36 37 112 -83 c61
-46 141 -99 178 -119z m2489 -368 c0 -14 -62 -152 -111 -247 -92 -178 -174
-285 -359 -470 -197 -197 -376 -330 -443 -330 -17 0 -19 5 -14 43 8 58 109
255 218 422 50 77 102 164 115 193 31 67 62 181 72 258 l7 59 145 6 c135 6
255 27 330 58 27 10 40 13 40 8z m-1950 -1616 c85 -60 116 -206 76 -361 -49
-193 -261 -490 -463 -651 -184 -146 -398 -230 -509 -200 -86 23 -149 92 -175
193 -12 45 -12 49 33 147 87 189 231 385 417 571 259 258 509 379 621 301z
m2549 -2213 c-19 -197 -108 -991 -112 -993 -1 -1 -22 -16 -47 -32 -57 -39
-115 -63 -149 -63 -35 1 -98 31 -138 66 l-32 29 -46 430 c-25 237 -45 437 -45
446 0 11 44 33 148 73 169 67 269 117 362 180 36 25 68 45 71 45 3 1 -3 -81
-12 -181z m-6155 -272 c115 -43 230 -71 376 -92 63 -9 116 -17 117 -18 3 -3
-95 -1067 -99 -1069 -1 -1 -17 -12 -33 -23 -45 -31 -106 -61 -142 -68 -41 -9
-120 24 -160 67 l-30 32 -64 603 c-36 331 -63 602 -61 602 2 0 45 -15 96 -34z
m3431 -541 c94 -8 211 -15 260 -15 50 0 95 -4 102 -8 9 -6 1 -135 -38 -562
l-50 -555 -27 -23 c-40 -33 -141 -82 -172 -82 -33 0 -120 43 -149 74 -20 22
-26 64 -84 605 l-62 581 25 0 c14 0 102 -7 195 -15z"/>
<path d="M5105 10710 c-134 -93 -197 -123 -237 -113 -13 4 -50 23 -83 44 -45
29 -63 35 -77 28 -32 -17 -20 -36 50 -80 125 -80 185 -67 407 89 77 54 110 83
110 97 0 39 -40 24 -170 -65z"/>
<path d="M5927 10723 c-19 -18 2 -49 97 -140 165 -160 288 -237 395 -250 59
-7 164 13 192 36 18 14 18 18 6 35 -13 18 -16 18 -62 2 -144 -49 -274 10 -495
223 -101 96 -119 109 -133 94z"/>
<path d="M5464 10551 c-33 -14 -64 -60 -64 -94 0 -22 10 -40 39 -67 l39 -37
-6 -74 c-4 -69 -8 -80 -58 -156 -62 -97 -126 -168 -168 -190 -22 -11 -46 -14
-92 -10 -49 5 -65 3 -75 -9 -33 -40 96 -70 174 -40 52 19 127 95 195 194 28
40 53 69 55 65 3 -5 19 -44 36 -86 68 -171 110 -230 193 -271 42 -21 66 -26
130 -26 75 0 78 1 78 24 0 22 -5 23 -77 30 -140 11 -180 51 -275 271 -43 99
-52 132 -56 193 -3 63 -1 73 15 78 38 11 67 30 86 56 18 24 19 32 8 67 -7 24
-23 48 -40 61 -33 23 -106 34 -137 21z"/>
<path d="M4545 8261 c-157 -71 -65 -305 99 -251 114 37 123 201 14 250 -53 24
-63 24 -113 1z m96 -46 c30 -16 49 -49 49 -86 0 -32 -53 -79 -90 -79 -68 0
-112 84 -74 138 28 41 69 50 115 27z"/>
</g>
</svg>
